# xmcd
#
# Track frame offsets: 
#        150
#        14237
#        39285
#
# Disc length: 662 seconds
#
# Revision: 2
# Processed by: cddbd v1.5PL3 Copyright (c) Steve Scherf et al.
# Submitted via: ExactAudioCopy v0.95a5
#
DISCID=1e029403
DTITLE=Martin L. Gore - Stardust
DYEAR=2003
DGENRE=Electronic Rock
TTITLE0=Stardust
TTITLE1=I Cast A Lonesome Shadow (Stewart Walker Remix)
TTITLE2=Life Is Strange
EXTD=YEAR: 2003
EXTT0=
EXTT1=
EXTT2=
PLAYORDER=
